# xmcd CD database file
#
# Track frame offsets:
#	150
#	12395
#	23657
#	40220
#	56512
#	68300
#	87612
#	97867
#	110475
#	128992
#	144377
#	158950
#	172762
#
# Disc length: 2488 seconds
#
# Revision: 2
# Processed by: cddbd v1.5.2PL0 Copyright (c) Steve Scherf et al.
# Submitted via: CDex 1.51
#
DISCID=9d09b60d
DTITLE=Far From Finished - Living In The Fallout
DYEAR=2007
DGENRE=Punk
TTITLE0=Disaster
TTITLE1=Plague
TTITLE2=Roses and Razor Blades
TTITLE3=The Imposter
TTITLE4=Watch Your Back
TTITLE5=Broken
TTITLE6=Wanna Be A Catastrophe
TTITLE7=A New Tune
TTITLE8=Just Us Kids [November]
TTITLE9=Heroes And Ghosts
TTITLE10=1849
TTITLE11=Twenty-One Guns
TTITLE12=Living In The Fallout
EXTD=YEAR: 2007
EXTT0=
EXTT1=
EXTT2=
EXTT3=
EXTT4=
EXTT5=
EXTT6=
EXTT7=
EXTT8=
EXTT9=
EXTT10=
EXTT11=
EXTT12=
PLAYORDER=
